 <svg  version="1.0" xmlns="http://www.w3.org/2000/svg"  width="300.000000pt" height="278.000000pt" viewBox="0 0 300.000000 278.000000"  preserveAspectRatio="xMidYMid meet">  <g transform="translate(0.000000,278.000000) scale(0.050000,-0.050000)" fill="#ffffff" stroke="none"> <path d="M1880 4317 c-662 -180 -1050 -876 -809 -1453 l28 -66 133 102 c525 402 1237 399 1778 -8 139 -106 139 -106 179 85 168 799 -559 1544 -1309 1340z"/> <path d="M3320 4312 c-202 -63 -189 -46 -105 -142 276 -316 424 -930 309 -1280 -85 -254 -213 -498 -329 -624 l-41 -45 55 -21 c962 -365 1851 716 1325 1611 -227 386 -809 627 -1214 501z"/> <path d="M1910 2854 c-303 -51 -629 -304 -775 -600 -422 -855 325 -1776 1266 -1562 157 35 163 46 81 139 -444 506 -439 1331 11 1876 66 80 63 83 -98 119 -181 40 -355 50 -485 28z"/> <path d="M2542 2135 c-105 -284 -58 -680 114 -955 629 -1009 2206 -424 2025 751 -42 269 -52 278 -195 170 -529 -401 -1175 -407 -1760 -17 -167 111 -162 110 -184 51z"/> </g> </svg> 